<svg width="17" height="17" viewBox="0 0 17 17" fill="none" xmlns="http://www.w3.org/2000/svg">
<path fill-rule="evenodd" clip-rule="evenodd" d="M1.70711 0.292893C1.31658 -0.0976311 0.683417 -0.0976311 0.292893 0.292893C-0.0976311 0.683417 -0.0976311 1.31658 0.292893 1.70711L6.93272 8.34693L0.292893 14.9868C-0.0976311 15.3773 -0.0976311 16.0104 0.292893 16.401C0.683418 16.7915 1.31658 16.7915 1.70711 16.401L8.34693 9.76114L14.9868 16.401C15.3773 16.7915 16.0104 16.7915 16.401 16.401C16.7915 16.0104 16.7915 15.3773 16.401 14.9868L9.76114 8.34693L16.401 1.70711C16.7915 1.31658 16.7915 0.683419 16.401 0.292894C16.0104 -0.0976302 15.3773 -0.0976302 14.9868 0.292894L8.34693 6.93272L1.70711 0.292893Z" fill="white"/>
</svg>
