<svg width="24" height="24" viewBox="0 0 24 24" fill="none" xmlns="http://www.w3.org/2000/svg">
<mask id="path-1-inside-1_3146_957" fill="white">
<path fill-rule="evenodd" clip-rule="evenodd" d="M17 4C17 1.79086 15.2091 0 13 0H11C8.79086 0 7 1.79086 7 4V7H4C1.79086 7 0 8.79086 0 11V13C0 15.2091 1.79086 17 4 17H7V20C7 22.2091 8.79086 24 11 24H13C15.2091 24 17 22.2091 17 20V17H20C22.2091 17 24 15.2091 24 13V11C24 8.79086 22.2091 7 20 7H17V4Z"/>
</mask>
<path d="M7 7V9H9V7H7ZM7 17H9V15H7V17ZM17 20L19 20V20H17ZM17 17V15H15V17H17ZM17 7H15V9H17V7ZM13 2C14.1046 2 15 2.89543 15 4H19C19 0.686292 16.3137 -2 13 -2V2ZM11 2H13V-2H11V2ZM9 4C9 2.89543 9.89543 2 11 2V-2C7.68629 -2 5 0.686292 5 4H9ZM9 7V4H5V7H9ZM4 9H7V5H4V9ZM2 11C2 9.89543 2.89543 9 4 9V5C0.686292 5 -2 7.68629 -2 11H2ZM2 13V11H-2V13H2ZM4 15C2.89543 15 2 14.1046 2 13H-2C-2 16.3137 0.686292 19 4 19V15ZM7 15H4V19H7V15ZM9 20V17H5V20H9ZM11 22C9.89543 22 9 21.1046 9 20H5C5 23.3137 7.68629 26 11 26V22ZM13 22H11V26H13V22ZM15 20C15 21.1046 14.1046 22 13 22V26C16.3137 26 19 23.3137 19 20L15 20ZM15 17V20H19V17H15ZM20 15H17V19H20V15ZM22 13C22 14.1046 21.1046 15 20 15V19C23.3137 19 26 16.3137 26 13H22ZM22 11V13H26V11H22ZM20 9C21.1046 9 22 9.89543 22 11H26C26 7.68629 23.3137 5 20 5V9ZM17 9H20V5H17V9ZM15 4V7H19V4H15Z" fill="white" mask="url(#path-1-inside-1_3146_957)"/>
</svg>
