<svg width="50" height="50" viewBox="0 0 50 50" fill="none" xmlns="http://www.w3.org/2000/svg">
<mask id="path-2-inside-1_3146_902" fill="white">
<path fill-rule="evenodd" clip-rule="evenodd" d="M30 17C30 14.7909 28.2091 13 26 13H24C21.7909 13 20 14.7909 20 17V20H17C14.7909 20 13 21.7909 13 24V26C13 28.2091 14.7909 30 17 30H20V33C20 35.2091 21.7909 37 24 37H26C28.2091 37 30 35.2091 30 33V30H33C35.2091 30 37 28.2091 37 26V24C37 21.7909 35.2091 20 33 20H30V17Z"/>
</mask>
<path d="M20 20V22H22V20H20ZM20 30H22V28H20V30ZM30 33L32 33V33H30ZM30 30V28H28V30H30ZM30 20H28V22H30V20ZM26 15C27.1046 15 28 15.8954 28 17H32C32 13.6863 29.3137 11 26 11V15ZM24 15H26V11H24V15ZM22 17C22 15.8954 22.8954 15 24 15V11C20.6863 11 18 13.6863 18 17H22ZM22 20V17H18V20H22ZM17 22H20V18H17V22ZM15 24C15 22.8954 15.8954 22 17 22V18C13.6863 18 11 20.6863 11 24H15ZM15 26V24H11V26H15ZM17 28C15.8954 28 15 27.1046 15 26H11C11 29.3137 13.6863 32 17 32V28ZM20 28H17V32H20V28ZM22 33V30H18V33H22ZM24 35C22.8954 35 22 34.1046 22 33H18C18 36.3137 20.6863 39 24 39V35ZM26 35H24V39H26V35ZM28 33C28 34.1046 27.1046 35 26 35V39C29.3137 39 32 36.3137 32 33L28 33ZM28 30V33H32V30H28ZM33 28H30V32H33V28ZM35 26C35 27.1046 34.1046 28 33 28V32C36.3137 32 39 29.3137 39 26H35ZM35 24V26H39V24H35ZM33 22C34.1046 22 35 22.8954 35 24H39C39 20.6863 36.3137 18 33 18V22ZM30 22H33V18H30V22ZM28 17V20H32V17H28Z" fill="white" mask="url(#path-2-inside-1_3146_902)"/>
</svg>
